<svg width="640" height="486" viewBox="0 0 640 486" fill="none" xmlns="http://www.w3.org/2000/svg">
<path d="M317.363 408.465C184.244 398.498 25.4943 297.011 33.5764 192.514C41.6586 88.0161 195.41 -9.26229 328.528 0.705162C461.647 10.6726 538.274 205.961 530.192 310.458C522.11 414.956 450.481 418.433 317.363 408.465Z" fill="#696969"/>
<path d="M321.192 447.241C480.003 447.241 608.744 439.354 608.744 429.624C608.744 419.895 480.003 412.007 321.192 412.007C162.381 412.007 33.6389 419.895 33.6389 429.624C33.6389 439.354 162.381 447.241 321.192 447.241Z" fill="#262530"/>
<path opacity="0.1" d="M321.191 440.99C456.463 440.99 566.123 435.774 566.123 429.34C566.123 422.906 456.463 417.69 321.191 417.69C185.92 417.69 76.2603 422.906 76.2603 429.34C76.2603 435.774 185.92 440.99 321.191 440.99Z" fill="black"/>
<path d="M538.845 92.0623H111.494V427.351H538.845V92.0623Z" fill="#262530"/>
<path d="M320.308 137.883H214.881C214.712 137.883 214.546 137.85 214.39 137.786C214.235 137.722 214.093 137.628 213.974 137.509C213.855 137.39 213.76 137.249 213.696 137.094C213.632 136.938 213.598 136.772 213.598 136.603C213.598 136.435 213.632 136.268 213.696 136.113C213.76 135.958 213.855 135.816 213.974 135.698C214.093 135.579 214.235 135.485 214.39 135.42C214.546 135.356 214.712 135.323 214.881 135.324H320.308C320.647 135.325 320.971 135.46 321.211 135.7C321.45 135.939 321.584 136.264 321.584 136.603C321.584 136.942 321.45 137.267 321.211 137.507C320.971 137.747 320.647 137.882 320.308 137.883Z" fill="#F2F2F2"/>
<path d="M435.714 151.957H269.897C269.558 151.957 269.232 151.822 268.992 151.582C268.752 151.342 268.618 151.017 268.618 150.677C268.618 150.338 268.752 150.013 268.992 149.773C269.232 149.533 269.558 149.398 269.897 149.398H435.714C435.882 149.398 436.049 149.431 436.204 149.495C436.359 149.56 436.5 149.654 436.619 149.773C436.738 149.891 436.832 150.032 436.897 150.188C436.961 150.343 436.994 150.509 436.994 150.677C436.994 150.845 436.961 151.012 436.897 151.167C436.832 151.322 436.738 151.463 436.619 151.582C436.5 151.701 436.359 151.795 436.204 151.859C436.049 151.924 435.882 151.957 435.714 151.957Z" fill="#F2F2F2"/>
<path d="M320.819 166.031H215.392C215.053 166.031 214.728 165.896 214.488 165.656C214.248 165.416 214.113 165.091 214.113 164.751C214.113 164.412 214.248 164.087 214.488 163.847C214.728 163.607 215.053 163.472 215.392 163.472H320.819C321.159 163.472 321.484 163.607 321.724 163.847C321.964 164.087 322.099 164.412 322.099 164.751C322.099 165.091 321.964 165.416 321.724 165.656C321.484 165.896 321.159 166.031 320.819 166.031Z" fill="#F2F2F2"/>
<path d="M435.714 166.287H330.287C329.948 166.287 329.623 166.152 329.383 165.912C329.143 165.672 329.008 165.347 329.008 165.007C329.008 164.668 329.143 164.342 329.383 164.102C329.623 163.863 329.948 163.728 330.287 163.728H435.714C436.054 163.728 436.379 163.863 436.619 164.102C436.859 164.342 436.994 164.668 436.994 165.007C436.994 165.347 436.859 165.672 436.619 165.912C436.379 166.152 436.054 166.287 435.714 166.287Z" fill="#F2F2F2"/>
<path d="M321.075 180.105H215.648C215.309 180.105 214.983 179.97 214.743 179.73C214.504 179.49 214.369 179.165 214.369 178.825C214.369 178.486 214.504 178.161 214.743 177.921C214.983 177.681 215.309 177.546 215.648 177.546H321.075C321.415 177.546 321.74 177.681 321.98 177.921C322.22 178.161 322.355 178.486 322.355 178.825C322.355 179.165 322.22 179.49 321.98 179.73C321.74 179.97 321.415 180.105 321.075 180.105Z" fill="#F2F2F2"/>
<path d="M321.331 194.179H215.904C215.565 194.179 215.239 194.044 214.999 193.804C214.759 193.564 214.625 193.239 214.625 192.899C214.625 192.56 214.759 192.235 214.999 191.995C215.239 191.755 215.565 191.62 215.904 191.62H321.331C321.67 191.62 321.996 191.755 322.236 191.995C322.476 192.235 322.611 192.56 322.611 192.899C322.611 193.239 322.476 193.564 322.236 193.804C321.996 194.044 321.67 194.179 321.331 194.179Z" fill="#F2F2F2"/>
<path d="M369.183 138.139H338.988C338.648 138.139 338.323 138.004 338.083 137.764C337.843 137.524 337.708 137.199 337.708 136.859C337.708 136.52 337.843 136.194 338.083 135.954C338.323 135.715 338.648 135.58 338.988 135.58H369.183C369.522 135.58 369.848 135.715 370.088 135.954C370.327 136.194 370.462 136.52 370.462 136.859C370.462 137.199 370.327 137.524 370.088 137.764C369.848 138.004 369.522 138.139 369.183 138.139Z" fill="#F2F2F2"/>
<path d="M369.183 180.105H338.988C338.648 180.105 338.323 179.97 338.083 179.73C337.843 179.49 337.708 179.165 337.708 178.825C337.708 178.486 337.843 178.161 338.083 177.921C338.323 177.681 338.648 177.546 338.988 177.546H369.183C369.522 177.546 369.848 177.681 370.088 177.921C370.327 178.161 370.462 178.486 370.462 178.825C370.462 179.165 370.327 179.49 370.088 179.73C369.848 179.97 369.522 180.105 369.183 180.105Z" fill="#F2F2F2"/>
<path d="M369.183 193.923H338.988C338.819 193.923 338.653 193.89 338.497 193.826C338.342 193.762 338.2 193.668 338.081 193.549C337.962 193.43 337.868 193.289 337.803 193.134C337.739 192.978 337.706 192.812 337.706 192.643C337.706 192.475 337.739 192.309 337.803 192.153C337.868 191.998 337.962 191.857 338.081 191.738C338.2 191.619 338.342 191.525 338.497 191.461C338.653 191.396 338.819 191.364 338.988 191.364H369.183C369.351 191.364 369.518 191.396 369.673 191.461C369.829 191.525 369.97 191.619 370.089 191.738C370.208 191.857 370.303 191.998 370.367 192.153C370.432 192.309 370.465 192.475 370.465 192.643C370.465 192.812 370.432 192.978 370.367 193.134C370.303 193.289 370.208 193.43 370.089 193.549C369.97 193.668 369.829 193.762 369.673 193.826C369.518 193.89 369.351 193.923 369.183 193.923Z" fill="#F2F2F2"/>
<path d="M419.849 193.923H389.654C389.315 193.922 388.99 193.787 388.751 193.547C388.512 193.307 388.377 192.982 388.377 192.643C388.377 192.305 388.512 191.98 388.751 191.74C388.99 191.5 389.315 191.365 389.654 191.364H419.849C420.017 191.364 420.184 191.396 420.34 191.461C420.495 191.525 420.637 191.619 420.756 191.738C420.875 191.857 420.969 191.998 421.034 192.153C421.098 192.309 421.131 192.475 421.131 192.643C421.131 192.812 421.098 192.978 421.034 193.134C420.969 193.289 420.875 193.43 420.756 193.549C420.637 193.668 420.495 193.762 420.34 193.826C420.184 193.89 420.017 193.923 419.849 193.923Z" fill="#F2F2F2"/>
<path d="M244.82 151.957H214.625C214.285 151.957 213.96 151.822 213.72 151.582C213.48 151.342 213.345 151.017 213.345 150.677C213.345 150.338 213.48 150.013 213.72 149.773C213.96 149.533 214.285 149.398 214.625 149.398H244.82C245.159 149.398 245.485 149.533 245.724 149.773C245.964 150.013 246.099 150.338 246.099 150.677C246.099 151.017 245.964 151.342 245.724 151.582C245.485 151.822 245.159 151.957 244.82 151.957Z" fill="#F2F2F2"/>
<path d="M320.436 345.155H215.008C214.669 345.155 214.344 345.02 214.104 344.78C213.864 344.54 213.729 344.214 213.729 343.875C213.729 343.536 213.864 343.21 214.104 342.97C214.344 342.73 214.669 342.596 215.008 342.596H320.436C320.775 342.596 321.1 342.73 321.34 342.97C321.58 343.21 321.715 343.536 321.715 343.875C321.715 344.214 321.58 344.54 321.34 344.78C321.1 345.02 320.775 345.155 320.436 345.155Z" fill="#F2F2F2"/>
<path d="M319.924 373.302H214.497C214.157 373.302 213.832 373.168 213.592 372.928C213.352 372.688 213.217 372.362 213.217 372.023C213.217 371.684 213.352 371.358 213.592 371.118C213.832 370.878 214.157 370.744 214.497 370.744H319.924C320.263 370.744 320.589 370.878 320.829 371.118C321.068 371.358 321.203 371.684 321.203 372.023C321.203 372.362 321.068 372.688 320.829 372.928C320.589 373.168 320.263 373.302 319.924 373.302Z" fill="#F2F2F2"/>
<path d="M320.18 387.376H214.753C214.584 387.377 214.418 387.344 214.262 387.28C214.107 387.216 213.965 387.122 213.846 387.003C213.727 386.884 213.633 386.743 213.568 386.587C213.504 386.432 213.47 386.265 213.47 386.097C213.47 385.929 213.504 385.762 213.568 385.607C213.633 385.451 213.727 385.31 213.846 385.191C213.965 385.073 214.107 384.978 214.262 384.914C214.418 384.85 214.584 384.817 214.753 384.818H320.18C320.348 384.817 320.515 384.85 320.67 384.914C320.826 384.978 320.967 385.073 321.086 385.191C321.205 385.31 321.3 385.451 321.364 385.607C321.429 385.762 321.462 385.929 321.462 386.097C321.462 386.265 321.429 386.432 321.364 386.587C321.3 386.743 321.205 386.884 321.086 387.003C320.967 387.122 320.826 387.216 320.67 387.28C320.515 387.344 320.348 387.377 320.18 387.376Z" fill="#F2F2F2"/>
<path d="M365.216 373.558H335.021C334.682 373.558 334.357 373.424 334.117 373.184C333.877 372.944 333.742 372.618 333.742 372.279C333.742 371.94 333.877 371.614 334.117 371.374C334.357 371.134 334.682 370.999 335.021 370.999H365.216C365.556 370.999 365.881 371.134 366.121 371.374C366.361 371.614 366.496 371.94 366.496 372.279C366.496 372.618 366.361 372.944 366.121 373.184C365.881 373.424 365.556 373.558 365.216 373.558Z" fill="#F2F2F2"/>
<path d="M365.216 387.376H335.021C334.682 387.376 334.357 387.242 334.117 387.002C333.877 386.762 333.742 386.436 333.742 386.097C333.742 385.758 333.877 385.432 334.117 385.192C334.357 384.952 334.682 384.818 335.021 384.818H365.216C365.556 384.818 365.881 384.952 366.121 385.192C366.361 385.432 366.496 385.758 366.496 386.097C366.496 386.436 366.361 386.762 366.121 387.002C365.881 387.242 365.556 387.376 365.216 387.376Z" fill="#F2F2F2"/>
<path d="M415.883 373.558H385.688C385.348 373.558 385.023 373.424 384.783 373.184C384.543 372.944 384.408 372.618 384.408 372.279C384.408 371.94 384.543 371.614 384.783 371.374C385.023 371.134 385.348 370.999 385.688 370.999H415.883C416.222 370.999 416.548 371.134 416.788 371.374C417.028 371.614 417.162 371.94 417.162 372.279C417.162 372.618 417.028 372.944 416.788 373.184C416.548 373.424 416.222 373.558 415.883 373.558Z" fill="#F2F2F2"/>
<path d="M435.842 359.228H270.025C269.686 359.228 269.36 359.094 269.12 358.854C268.88 358.614 268.746 358.288 268.746 357.949C268.746 357.61 268.88 357.284 269.12 357.044C269.36 356.804 269.686 356.67 270.025 356.67H435.842C436.182 356.67 436.507 356.804 436.747 357.044C436.987 357.284 437.122 357.61 437.122 357.949C437.122 358.288 436.987 358.614 436.747 358.854C436.507 359.094 436.182 359.228 435.842 359.228Z" fill="#F2F2F2"/>
<path d="M244.948 359.228H214.753C214.413 359.228 214.088 359.094 213.848 358.854C213.608 358.614 213.473 358.288 213.473 357.949C213.473 357.61 213.608 357.284 213.848 357.044C214.088 356.804 214.413 356.67 214.753 356.67H244.948C245.287 356.67 245.612 356.804 245.852 357.044C246.092 357.284 246.227 357.61 246.227 357.949C246.227 358.288 246.092 358.614 245.852 358.854C245.612 359.094 245.287 359.228 244.948 359.228Z" fill="#F2F2F2"/>
<path d="M435.842 401.706H270.025C269.857 401.707 269.69 401.674 269.535 401.61C269.379 401.546 269.238 401.451 269.119 401.333C268.999 401.214 268.905 401.073 268.841 400.917C268.776 400.762 268.743 400.595 268.743 400.427C268.743 400.259 268.776 400.092 268.841 399.937C268.905 399.781 268.999 399.64 269.119 399.521C269.238 399.402 269.379 399.308 269.535 399.244C269.69 399.18 269.857 399.147 270.025 399.147H435.842C436.182 399.147 436.507 399.282 436.747 399.522C436.987 399.762 437.122 400.088 437.122 400.427C437.122 400.766 436.987 401.092 436.747 401.332C436.507 401.572 436.182 401.706 435.842 401.706Z" fill="#F2F2F2"/>
<path d="M244.948 401.706H214.753C214.584 401.707 214.418 401.674 214.262 401.61C214.107 401.546 213.965 401.451 213.846 401.333C213.727 401.214 213.633 401.073 213.568 400.917C213.504 400.762 213.47 400.595 213.47 400.427C213.47 400.259 213.504 400.092 213.568 399.937C213.633 399.781 213.727 399.64 213.846 399.521C213.965 399.402 214.107 399.308 214.262 399.244C214.418 399.18 214.584 399.147 214.753 399.147H244.948C245.116 399.147 245.283 399.18 245.438 399.244C245.594 399.308 245.735 399.402 245.854 399.521C245.973 399.64 246.068 399.781 246.132 399.937C246.197 400.092 246.23 400.259 246.23 400.427C246.23 400.595 246.197 400.762 246.132 400.917C246.068 401.073 245.973 401.214 245.854 401.333C245.735 401.451 245.594 401.546 245.438 401.61C245.283 401.674 245.116 401.707 244.948 401.706Z" fill="#F2F2F2"/>
<path d="M294.975 227.957L254.032 268.387L294.975 308.818L304.186 299.606L273.224 268.643L304.442 237.424L294.975 227.957Z" fill="#2299F8"/>
<path d="M355.365 227.957L396.307 268.387L355.365 308.818L346.153 299.606L377.116 268.643L345.897 237.424L355.365 227.957Z" fill="#2299F8"/>
<path d="M122.86 105.701C125.684 105.701 127.974 103.411 127.974 100.587C127.974 97.7619 125.684 95.472 122.86 95.472C120.035 95.472 117.745 97.7619 117.745 100.587C117.745 103.411 120.035 105.701 122.86 105.701Z" fill="#D53228"/>
<path d="M136.499 105.701C139.323 105.701 141.613 103.411 141.613 100.587C141.613 97.7619 139.323 95.472 136.499 95.472C133.674 95.472 131.384 97.7619 131.384 100.587C131.384 103.411 133.674 105.701 136.499 105.701Z" fill="#D5CE28"/>
<path d="M150.137 105.701C152.962 105.701 155.252 103.411 155.252 100.587C155.252 97.7619 152.962 95.472 150.137 95.472C147.313 95.472 145.023 97.7619 145.023 100.587C145.023 103.411 147.313 105.701 150.137 105.701Z" fill="#2BD528"/>
<path opacity="0.1" d="M538.845 109.111H111.494V110.816H538.845V109.111Z" fill="black"/>
<path d="M640 345.207C640 381.448 618.456 394.101 591.88 394.101C565.303 394.101 543.759 381.448 543.759 345.207C543.759 308.967 591.88 262.864 591.88 262.864C591.88 262.864 640 308.967 640 345.207Z" fill="#2299F8"/>
<path d="M590.127 388.558L590.62 358.228L611.13 320.705L590.697 353.47L590.919 339.832L605.054 312.686L590.977 336.224L591.375 311.696L606.512 290.083L591.438 307.839L591.687 262.864L590.122 322.403L590.251 319.947L574.862 296.391L590.004 324.662L588.57 352.055L588.528 351.327L570.786 326.538L588.474 353.896L588.295 357.322L588.262 357.373L588.277 357.655L584.639 427.154H589.5L590.083 391.256L607.727 363.965L590.127 388.558Z" fill="#3F3D56"/>
</svg>
