<svg width="139" height="395" viewBox="0 0 139 395" fill="none" xmlns="http://www.w3.org/2000/svg">
<path d="M14.4657 138.756C14.9577 138.979 15.4309 139.242 15.8807 139.541L60.8672 120.455L62.4729 108.675L80.4481 108.565L79.3862 135.583L20.0091 151.192C19.8842 151.602 19.7344 152.004 19.5603 152.397C18.7019 154.218 17.3213 155.746 15.592 156.789C13.8627 157.833 11.8618 158.345 9.84053 158.262C7.81929 158.179 5.86786 157.504 4.23127 156.322C2.59468 155.139 1.34592 153.503 0.641824 151.618C-0.0622683 149.733 -0.190317 147.683 0.273782 145.726C0.737881 143.768 1.77344 141.991 3.25038 140.617C4.72731 139.242 6.57973 138.333 8.5751 138.002C10.5705 137.671 12.6198 137.933 14.4657 138.756Z" fill="#FFB8B8"/>
<path d="M86.9853 383.583H74.6887L68.8392 336.436L86.9874 336.437L86.9853 383.583Z" fill="#FFB8B8"/>
<path d="M65.9053 380.09H89.6199V394.933H50.9739C50.9739 390.996 52.547 387.221 55.3472 384.437C58.1473 381.654 61.9452 380.09 65.9053 380.09Z" fill="#262530"/>
<path d="M134.808 380.129L122.571 381.327L112.098 334.978L130.159 333.209L134.808 380.129Z" fill="#FFB8B8"/>
<path d="M113.486 378.707L137.086 376.397L138.55 391.168L100.09 394.933C99.8976 392.994 100.092 391.035 100.661 389.17C101.23 387.305 102.163 385.569 103.407 384.063C104.651 382.556 106.181 381.307 107.911 380.389C109.64 379.47 111.534 378.899 113.486 378.707Z" fill="#262530"/>
<path d="M90.4081 58.6689C104.013 58.6689 115.043 47.7054 115.043 34.1812C115.043 20.6569 104.013 9.69336 90.4081 9.69336C76.8028 9.69336 65.7736 20.6569 65.7736 34.1812C65.7736 47.7054 76.8028 58.6689 90.4081 58.6689Z" fill="#FFB8B8"/>
<path d="M71.9408 374.048C70.884 374.051 69.8603 373.683 69.0501 373.008C68.24 372.334 67.6954 371.397 67.5126 370.362C61.1479 335.242 40.3436 220.406 39.846 217.225C39.835 217.152 39.8298 217.078 39.8304 217.004V208.441C39.8295 208.13 39.9276 207.825 40.1105 207.572L42.8589 203.746C42.9895 203.561 43.1608 203.41 43.3596 203.302C43.5585 203.194 43.7795 203.132 44.0059 203.122C59.6747 202.392 110.99 200.252 113.469 203.331C115.959 206.425 115.079 215.8 114.878 217.648L114.887 217.841L137.942 364.398C138.122 365.566 137.832 366.759 137.135 367.717C136.438 368.675 135.389 369.322 134.216 369.517L119.816 371.875C118.744 372.046 117.645 371.829 116.72 371.263C115.795 370.698 115.105 369.82 114.776 368.792C110.322 354.645 95.3888 307.058 90.2132 288.645C90.1808 288.528 90.1069 288.427 90.0051 288.361C89.9034 288.295 89.7808 288.267 89.6603 288.284C89.5398 288.301 89.4296 288.361 89.3504 288.453C89.2712 288.545 89.2283 288.662 89.2297 288.783C89.4883 306.336 90.1132 351.12 90.3287 366.587L90.3522 368.253C90.3618 369.381 89.9454 370.471 89.1853 371.309C88.4252 372.146 87.3768 372.67 86.2472 372.776L72.362 374.03C72.2209 374.043 72.0798 374.048 71.9408 374.048Z" fill="#262530"/>
<path d="M74.7739 68.2976C70.4748 70.838 67.9022 75.5064 66.4262 80.2569C63.6931 89.0518 62.048 98.1449 61.5272 107.335L59.967 134.853L40.6543 207.805C57.3929 221.883 67.0484 218.684 89.5807 207.168C112.113 195.652 114.688 211.007 114.688 211.007L119.194 148.935L125.631 81.1055C124.186 79.3758 122.551 77.8127 120.755 76.4453C114.805 71.8459 107.882 68.649 100.508 67.0954C93.1342 65.5419 85.5018 65.6723 78.186 67.4768L74.7739 68.2976Z" fill="#2299F8"/>
<path d="M68.5009 153.489C69.0204 153.684 69.5237 153.918 70.006 154.191L114.487 132.06L115.225 120.07L133.574 118.813L134.557 146.144L75.114 165.685C74.6286 167.754 73.5209 169.628 71.9383 171.056C70.3557 172.484 68.373 173.4 66.2542 173.681C64.1353 173.962 61.9805 173.595 60.0764 172.629C58.1724 171.664 56.6093 170.144 55.595 168.274C54.5807 166.403 54.1633 164.27 54.3983 162.158C54.6333 160.046 55.5096 158.055 56.9106 156.45C58.3116 154.845 60.1709 153.702 62.2413 153.173C64.3117 152.645 66.495 152.755 68.5009 153.489Z" fill="#FFB8B8"/>
<path d="M125.309 81.4161C136.253 85.2558 138.181 126.854 138.181 126.854C125.306 119.815 109.855 131.334 109.855 131.334C109.855 131.334 106.636 120.455 102.774 106.376C101.607 102.416 101.468 98.2272 102.368 94.1992C103.269 90.1712 105.18 86.4351 107.924 83.3388C107.924 83.3388 114.365 77.5741 125.309 81.4161Z" fill="#2299F8"/>
<path d="M112.497 40.6571C109.428 38.216 105.24 42.6529 105.24 42.6529L102.784 20.6851C102.784 20.6851 87.4374 22.5125 77.6156 20.0753C67.7937 17.6381 66.2591 28.924 66.2591 28.924C65.7528 24.3651 65.6501 19.7708 65.9524 15.1941C66.5658 9.70218 74.5464 4.21023 88.6653 0.548617C102.784 -3.113 110.15 12.7531 110.15 12.7531C119.973 17.6342 115.566 43.0982 112.497 40.6571Z" fill="#262530"/>
</svg>
