<svg width="97" height="165" viewBox="0 0 97 165" fill="none" xmlns="http://www.w3.org/2000/svg">
<path d="M96.2409 82.3435C96.2409 118.584 74.6966 131.237 48.1204 131.237C21.5442 131.237 0 118.584 0 82.3435C0 46.1033 48.1204 0 48.1204 0C48.1204 0 96.2409 46.1033 96.2409 82.3435Z" fill="#2299F8"/>
<path d="M46.3678 125.694L46.8605 95.3637L67.3706 57.8415L46.9378 90.606L47.1595 76.9683L61.2945 49.8219L47.218 73.3597L47.6163 48.8319L62.7527 27.2194L47.6789 44.975L47.9278 0.000244141L46.3633 59.539L46.4917 57.0828L31.1025 33.5268L46.2451 61.7979L44.8113 89.191L44.7687 88.4636L27.0273 63.6744L44.7147 91.0322L44.5356 94.4579L44.5033 94.5096L44.518 94.7909L40.8799 164.29H45.7404L46.3235 128.392L63.9683 101.101L46.3678 125.694Z" fill="#3F3D56"/>
</svg>
