<svg width="85" height="60" viewBox="0 0 85 60" fill="none" xmlns="http://www.w3.org/2000/svg">
<g clip-path="url(#clip0)">
<path d="M84.6167 57.0218H0.197632V60H84.6167V57.0218Z" fill="#F2F2F2"/>
<path d="M78.6207 6.23328H6.0224V10.5952H78.6207V6.23328Z" fill="#F2F2F2"/>
<path d="M84.6167 6.23328H81.6385V59.9869H84.6167V6.23328Z" fill="#F2F2F2"/>
<path d="M3.17589 6.23328H0.197632V59.9869H3.17589V6.23328Z" fill="#F2F2F2"/>
<path d="M39.5739 13.5208H33.7624V53.9908H39.5739V13.5208Z" fill="#F2F2F2"/>
<path d="M84.6431 0H0V2.97826H84.6431V0Z" fill="#F2F2F2"/>
<path d="M46.8289 13.3495H42.8289V28.3066H46.8289V13.3495Z" fill="#2299F8"/>
<path d="M42.8289 25.6842V28.8206C50.5681 28.9128 56.8289 33.8019 56.8289 39.8375C56.8289 45.8731 50.5681 50.7621 42.8289 50.8412V54.0303C52.7854 53.9249 60.8289 47.6258 60.8289 39.877C60.8289 32.1283 52.7854 25.7896 42.8289 25.6842Z" fill="#2299F8"/>
</g>
<defs>
<clipPath id="clip0">
<rect width="84.6431" height="60" fill="white"/>
</clipPath>
</defs>
</svg>
