<svg width="50" height="51" viewBox="0 0 50 51" fill="none" xmlns="http://www.w3.org/2000/svg">
<g clip-path="url(#clip0)">
<path d="M0 43.7984C0 47.3593 2.88652 50.2455 6.44707 50.2455H43.5527C47.1139 50.2455 50 47.359 50 43.7984V6.69275C50 3.13162 47.1135 0.245483 43.5529 0.245483H6.44727C2.88613 0.245483 0 3.13201 0 6.69255V43.7982V43.7984Z" fill="#563D7C"/>
<path d="M20.734 22.3623V15.2816H26.9666C27.5604 15.2816 28.1326 15.331 28.6838 15.4301C29.235 15.5289 29.7227 15.7054 30.1467 15.9599C30.5705 16.2144 30.9098 16.5677 31.1643 17.0199C31.4186 17.4722 31.5459 18.0517 31.5459 18.7582C31.5459 20.0302 31.1643 20.949 30.401 21.5142C29.6379 22.0797 28.6627 22.3623 27.4754 22.3623H20.734ZM14.0771 10.1088V40.3822H28.7475C30.1043 40.3822 31.4258 40.2127 32.7119 39.8734C33.998 39.5342 35.1428 39.0113 36.1463 38.3047C37.1496 37.598 37.9482 36.6863 38.5418 35.5699C39.1355 34.4533 39.4322 33.1318 39.4322 31.6054C39.4322 29.7115 38.9729 28.0933 38.0543 26.7508C37.1355 25.408 35.7434 24.4681 33.8777 23.931C35.2346 23.281 36.2594 22.447 36.952 21.4295C37.6443 20.4119 37.9906 19.14 37.9906 17.6135C37.9906 16.2002 37.7574 15.0131 37.291 14.0519C36.8246 13.091 36.1674 12.3207 35.3193 11.7412C34.4715 11.1617 33.4539 10.7447 32.2666 10.4904C31.0795 10.2359 29.765 10.1088 28.3234 10.1088H14.0771ZM20.734 35.2094V26.899H27.9842C29.4258 26.899 30.5848 27.231 31.4611 27.8955C32.3373 28.5597 32.7756 29.6691 32.7756 31.2238C32.7756 32.0154 32.6412 32.6654 32.3727 33.1742C32.1041 33.683 31.7438 34.0859 31.2914 34.3826C30.8393 34.6795 30.3162 34.8914 29.7227 35.0187C29.1289 35.1457 28.5072 35.2094 27.857 35.2094H20.734Z" fill="white"/>
</g>
<defs>
<clipPath id="clip0">
<rect width="50" height="50" fill="white" transform="translate(0 0.245483)"/>
</clipPath>
</defs>
</svg>
