<svg width="34" height="51" viewBox="0 0 34 51" fill="none" xmlns="http://www.w3.org/2000/svg">
<g clip-path="url(#clip0)">
<path d="M8.33333 50.2455C12.9333 50.2455 16.6667 46.5121 16.6667 41.9121V33.5788H8.33333C3.73333 33.5788 0 37.3121 0 41.9121C0 46.5121 3.73333 50.2455 8.33333 50.2455Z" fill="#0ACF83"/>
<path d="M0 25.2455C0 20.6455 3.73333 16.9122 8.33333 16.9122H16.6667V33.5788H8.33333C3.73333 33.5788 0 29.8455 0 25.2455Z" fill="#A259FF"/>
<path d="M0 8.57882C0 3.97882 3.73333 0.245483 8.33333 0.245483H16.6667V16.9122H8.33333C3.73333 16.9122 0 13.1788 0 8.57882Z" fill="#F24E1E"/>
<path d="M16.6667 0.245483H25C29.6 0.245483 33.3333 3.97882 33.3333 8.57882C33.3333 13.1788 29.6 16.9122 25 16.9122H16.6667V0.245483Z" fill="#FF7262"/>
<path d="M33.3333 25.2455C33.3333 29.8455 29.6 33.5788 25 33.5788C20.4 33.5788 16.6667 29.8455 16.6667 25.2455C16.6667 20.6455 20.4 16.9122 25 16.9122C29.6 16.9122 33.3333 20.6455 33.3333 25.2455Z" fill="#1ABCFE"/>
</g>
<defs>
<clipPath id="clip0">
<rect width="33.3333" height="50" fill="white" transform="translate(0 0.245483)"/>
</clipPath>
</defs>
</svg>
