<svg width="50" height="50" viewBox="0 0 50 50" fill="none" xmlns="http://www.w3.org/2000/svg">
<path d="M49.057 22.7726L27.2265 0.942937C25.9701 -0.314312 23.931 -0.314312 22.673 0.942937L18.1398 5.47622L23.8904 11.2269C25.2267 10.7753 26.7592 11.0783 27.8244 12.1435C28.8947 13.2156 29.1955 14.7612 28.733 16.1018L34.275 21.6441C35.6158 21.1822 37.1629 21.481 38.2338 22.5537C39.7304 24.0498 39.7304 26.4747 38.2338 27.9718C36.7367 29.4691 34.3119 29.4691 32.814 27.9718C31.6883 26.8448 31.4101 25.1914 31.9801 23.8045L26.8117 18.636L26.8111 32.2373C27.1858 32.4225 27.528 32.6672 27.8244 32.9619C29.3211 34.458 29.3211 36.8831 27.8244 38.3813C26.3273 39.8778 23.9014 39.8778 22.4064 38.3813C20.9098 36.8831 20.9098 34.4582 22.4064 32.9621C22.7651 32.6032 23.1914 32.319 23.6605 32.1259V18.3979C23.1907 18.2061 22.7642 17.9218 22.4064 17.5618C21.2724 16.4294 20.9998 14.7655 21.5808 13.3731L15.9121 7.70361L0.943359 22.6717C-0.314453 23.9301 -0.314453 25.9694 0.943359 27.2268L22.7742 49.0569C24.031 50.3144 26.0697 50.3144 27.3281 49.0569L49.0568 27.3282C50.3142 26.0704 50.3142 24.0299 49.0568 22.7726" fill="#DE4C36"/>
</svg>
