<svg width="50" height="51" viewBox="0 0 50 51" fill="none" xmlns="http://www.w3.org/2000/svg">
<path d="M47.4607 2.78467H2.53925V47.7063H47.4607V2.78467Z" fill="#F0DB4F"/>
<path d="M26.9854 37.8197C26.9854 42.1914 24.4184 44.1868 20.6782 44.1868C17.2992 44.1868 15.3439 42.4422 14.3411 40.3266L17.7804 38.2509C18.4422 39.424 19.0438 40.4166 20.4977 40.4166C21.8814 40.4166 22.764 39.8752 22.764 37.7596V23.4106H26.9854V37.8197Z" fill="#323330"/>
<path d="M36.9724 44.1868C33.0518 44.1868 30.515 42.3217 29.2816 39.8752L32.721 37.8897C33.6234 39.3638 34.8065 40.4567 36.8822 40.4567C38.6269 40.4567 39.7498 39.5844 39.7498 38.3712C39.7498 36.9272 38.6068 36.416 36.6717 35.5636L35.6188 35.1124C32.5706 33.8189 30.5551 32.1844 30.5551 28.7452C30.5551 25.5766 32.9716 23.17 36.7316 23.17C39.4189 23.17 41.3441 24.1026 42.7279 26.5492L39.4389 28.6549C38.7171 27.3613 37.9349 26.8501 36.7217 26.8501C35.4883 26.8501 34.7061 27.6323 34.7061 28.6549C34.7061 29.9184 35.4883 30.4299 37.3032 31.2218L38.3559 31.6731C41.9457 33.2072 43.9611 34.7817 43.9611 38.3111C43.9613 42.1012 40.9731 44.1868 36.9724 44.1868Z" fill="#323330"/>
</svg>
