<svg width="50" height="31" viewBox="0 0 50 31" fill="none" xmlns="http://www.w3.org/2000/svg">
<g clip-path="url(#clip0)">
<path d="M11.7979 8.11277H21.2283V8.86238H12.6623V14.5037H20.7176V15.2532H12.6623V21.4469H21.3266V22.1964H11.7979V8.11277ZM22.0732 8.11277H23.0752L27.5153 14.3064L32.0537 8.11267L38.2267 0.245483L28.0851 14.9574L33.3111 22.1964H32.2698L27.5153 15.6083L22.7411 22.1964H21.7195L26.9849 14.9573L22.0731 8.11277H22.0732ZM33.6844 8.86238V8.11267H44.4313V8.86228H39.4802V22.1963H38.6157V8.86238H33.6844ZM0 8.11267H1.08057L15.981 30.4098L9.82344 22.1963L0.903711 9.17791L0.864453 22.1965H0V8.11267ZM44.3441 21.2205C44.1675 21.2205 44.0351 21.0838 44.0351 20.9068C44.0351 20.7301 44.1675 20.5931 44.3441 20.5931C44.5229 20.5931 44.6532 20.73 44.6532 20.9068C44.6532 21.0837 44.5229 21.2205 44.3441 21.2205ZM45.1936 20.3953H45.6562C45.6624 20.6458 45.8453 20.8142 46.1145 20.8142C46.4151 20.8142 46.5854 20.6332 46.5854 20.2942V18.1468H47.0564V20.2963C47.0564 20.9068 46.7032 21.2585 46.1187 21.2585C45.5698 21.2585 45.1936 20.9174 45.1936 20.3952V20.3953ZM47.6725 20.3679H48.1393C48.1792 20.6563 48.4609 20.8394 48.8668 20.8394C49.2452 20.8394 49.5228 20.6436 49.5228 20.3742C49.5228 20.1427 49.3461 20.0037 48.9445 19.909L48.5534 19.8142C48.0046 19.6857 47.7545 19.4205 47.7545 18.9742C47.7545 18.4332 48.196 18.0731 48.8583 18.0731C49.4743 18.0731 49.9243 18.4331 49.9517 18.9447H49.4933C49.4491 18.6647 49.2052 18.4899 48.852 18.4899C48.4799 18.4899 48.2318 18.6689 48.2318 18.9426C48.2318 19.1593 48.3915 19.2837 48.7868 19.3762L49.1211 19.4584C49.7435 19.6037 50 19.8563 50 20.3132C50 20.8942 49.5501 21.2585 48.8311 21.2585C48.1582 21.2585 47.7061 20.911 47.6725 20.3678V20.3679Z" fill="black"/>
</g>
<defs>
<clipPath id="clip0">
<rect width="50" height="30.1758" fill="white" transform="translate(0 0.245483)"/>
</clipPath>
</defs>
</svg>
