<svg width="50" height="51" viewBox="0 0 50 51" fill="none" xmlns="http://www.w3.org/2000/svg">
<path d="M24.9583 29.3955C27.2687 29.3955 29.1417 27.5226 29.1417 25.2122C29.1417 22.9018 27.2687 21.0288 24.9583 21.0288C22.648 21.0288 20.775 22.9018 20.775 25.2122C20.775 27.5226 22.648 29.3955 24.9583 29.3955Z" fill="#00D8FF"/>
<path d="M24.9583 34.7955C19.0833 34.7955 13.95 34.1038 10.1083 32.7872C7.61666 31.9372 5.5 30.8038 3.99166 29.5122C2.39166 28.1455 1.54166 26.6538 1.54166 25.2122C1.54166 22.4455 4.575 19.7372 9.66666 17.9705C13.8333 16.5205 19.2667 15.7122 24.95 15.7122C30.5333 15.7122 35.8917 16.4955 40.0333 17.9288C42.4583 18.7622 44.5 19.8455 45.95 21.0455C47.525 22.3622 48.3583 23.8038 48.3583 25.2122C48.3583 28.0872 44.9667 30.9955 39.5 32.8038C35.6333 34.0872 30.4667 34.7955 24.9583 34.7955ZM24.9583 17.7122C19.5667 17.7122 14.2333 18.4955 10.3333 19.8538C5.65 21.4872 3.55 23.7205 3.55 25.2122C3.55 26.7622 5.80833 29.2038 10.7583 30.8955C14.3917 32.1372 19.3083 32.7955 24.9583 32.7955C30.2583 32.7955 35.2 32.1288 38.875 30.9038C44.0167 29.1955 46.3667 26.7538 46.3667 25.2122C46.3667 24.4205 45.7667 23.4872 44.675 22.5788C43.4167 21.5288 41.5833 20.5705 39.3917 19.8122C35.45 18.4622 30.325 17.7122 24.9583 17.7122Z" fill="#00D8FF"/>
<path d="M15.4667 46.0621C14.6167 46.0621 13.8667 45.8787 13.2333 45.5121C10.8417 44.1287 10.0083 40.1454 11.0167 34.8538C11.8417 30.5121 13.8583 25.4121 16.7 20.4871C19.4917 15.6538 22.8417 11.4038 26.15 8.52877C28.0833 6.84544 30.0417 5.61211 31.8083 4.96211C33.7333 4.25377 35.4 4.25377 36.6167 4.95377C39.1083 6.3871 39.9333 10.7871 38.7667 16.4204C37.9417 20.4204 35.975 25.2454 33.225 30.0204C30.2917 35.1038 27.125 39.2038 24.0667 41.8787C22.0833 43.6121 20.0417 44.8787 18.175 45.5371C17.2 45.8871 16.2833 46.0621 15.4667 46.0621ZM17.5583 20.9871L18.425 21.4871C15.7333 26.1538 13.7417 31.1621 12.975 35.2288C12.05 40.1037 12.9417 43.0371 14.225 43.7787C14.5417 43.9621 14.9583 44.0621 15.4667 44.0621C17.125 44.0621 19.7333 43.0121 22.75 40.3787C25.6417 37.8538 28.6667 33.9204 31.4917 29.0288C34.1417 24.4371 36.025 19.8204 36.8083 16.0288C37.9 10.7204 36.9583 7.47044 35.6167 6.69544C34.9333 6.30377 33.825 6.35377 32.4917 6.84544C30.95 7.4121 29.2083 8.52044 27.4583 10.0454C24.3167 12.7788 21.1083 16.8454 18.425 21.4954L17.5583 20.9871Z" fill="#00D8FF"/>
<path d="M34.45 46.0872C32.1833 46.0872 29.3083 44.7205 26.3083 42.1372C22.9583 39.2538 19.55 34.9622 16.7 30.0372C13.9 25.2038 11.9 20.1788 11.0583 15.8705C10.5667 13.3538 10.475 11.0455 10.7917 9.18715C11.1417 7.16215 11.9667 5.72048 13.1917 5.01215C15.675 3.57048 19.9 5.05381 24.2 8.87882C27.25 11.5872 30.45 15.7038 33.2083 20.4705C36.15 25.5538 38.125 30.3455 38.9083 34.3288C39.4166 36.9122 39.5 39.3122 39.1416 41.2622C38.7583 43.3372 37.8916 44.8122 36.6416 45.5372C36.0166 45.9038 35.275 46.0872 34.45 46.0872ZM18.4333 29.0372C21.1333 33.7038 24.4833 37.9288 27.6166 40.6205C31.375 43.8538 34.3583 44.5538 35.65 43.8038C36.9916 43.0288 37.975 39.8538 36.9583 34.7205C36.2083 30.9538 34.3166 26.3705 31.4833 21.4788C28.825 16.8872 25.7666 12.9455 22.875 10.3788C18.825 6.77882 15.5417 5.97048 14.2 6.74548C13.5167 7.13715 13.0083 8.12882 12.7667 9.52882C12.4917 11.1455 12.575 13.2122 13.025 15.4872C13.825 19.5788 15.7417 24.3872 18.4333 29.0372Z" fill="#00D8FF"/>
</svg>
