<svg width="50" height="51" viewBox="0 0 50 51" fill="none" xmlns="http://www.w3.org/2000/svg">
<g clip-path="url(#clip0)">
<path d="M0 25.2455V50.2455H50V0.245483H0V25.2455Z" fill="#007ACC"/>
<path d="M11.0568 25.4115L11.041 27.4589H17.5488V45.9511H22.1523V27.4589H28.6601V25.4511C28.6601 24.3398 28.6363 23.4113 28.6047 23.3875C28.5808 23.3558 24.6205 23.3398 19.8189 23.3478L11.0808 23.3716L11.057 25.4113L11.0568 25.4115Z" fill="white"/>
<path d="M40.3451 23.3135C41.6148 23.6311 42.5832 24.1944 43.4721 25.1151C43.9324 25.6072 44.6148 26.5041 44.6705 26.7184C44.6861 26.7819 42.5117 28.2422 41.1943 29.0596C41.1467 29.0914 40.956 28.885 40.7418 28.5674C40.099 27.6311 39.4244 27.2262 38.3926 27.1549C36.8769 27.0516 35.9006 27.8453 35.9086 29.1705C35.9086 29.5596 35.9641 29.7897 36.1228 30.1072C36.4562 30.7977 37.0752 31.2104 39.0197 32.0516C42.599 33.5914 44.1307 34.6072 45.0832 36.0516C46.1467 37.6629 46.3848 40.2342 45.6625 42.1469C44.8689 44.2262 42.9008 45.6391 40.1307 46.1072C39.2736 46.258 37.242 46.2342 36.3213 46.0676C34.3135 45.7104 32.4086 44.7184 31.234 43.4168C30.7736 42.9088 29.8767 41.5834 29.9324 41.4881C29.9562 41.4565 30.1625 41.3295 30.3926 41.1945C30.6148 41.0676 31.4562 40.5832 32.2498 40.1231L33.6863 39.2897L33.9879 39.7342C34.4086 40.377 35.3291 41.258 35.8848 41.5516C37.4799 42.393 39.6705 42.2738 40.7498 41.3055C41.2101 40.885 41.4006 40.4485 41.4006 39.8055C41.4006 39.2262 41.3291 38.9723 41.0275 38.536C40.6389 37.9803 39.8451 37.5119 37.591 36.536C35.0117 35.4246 33.9006 34.7342 32.8848 33.6389C32.2974 33.0041 31.7418 31.9881 31.5117 31.1389C31.3213 30.4326 31.2734 28.6627 31.4244 27.9485C31.9562 25.4563 33.8371 23.7184 36.5514 23.2024C37.4322 23.0358 39.4799 23.0992 40.3451 23.3137V23.3135Z" fill="white"/>
</g>
<defs>
<clipPath id="clip0">
<rect width="50" height="50" fill="white" transform="translate(0 0.245483)"/>
</clipPath>
</defs>
</svg>
