<svg width="50" height="50" viewBox="0 0 50 50" fill="none" xmlns="http://www.w3.org/2000/svg">
<path d="M50 0H0V50H50V0Z" fill="#FF26BE"/>
<path d="M47.7997 2.20013H2.19968V47.8004H47.7997V2.20013Z" fill="#2E001F"/>
<path d="M25.9564 13.3853H22.0507L17.858 22.1543L13.6091 13.3853H9.58562L15.2798 24.7715L9.38242 36.4305H13.3583L17.6261 27.4954L21.9433 36.4305H26.2468L20.1684 24.6345L25.9564 13.3853ZM36.7538 13.3853V19.2451C36.7538 19.2451 36.0782 19.2451 35.6283 19.2451C31.7875 19.2451 27.1443 21.7219 27.1443 28.0483C27.1443 32.939 29.6223 36.6151 34.9004 36.6151C38.7867 36.6151 40.6175 35.2707 40.6175 35.2707V13.3853H36.7538ZM36.75 33.2488C36.75 33.2488 36.3051 33.4444 35.2555 33.4444C34.2059 33.4444 30.9857 32.982 30.9857 27.8759C30.9857 22.7703 34.6862 22.3608 35.5755 22.3608C36.4653 22.3608 36.7499 22.61 36.7499 22.61V33.2488H36.75Z" fill="#FFD9F2"/>
</svg>
