<svg width="25" height="16" viewBox="0 0 25 16" fill="none" xmlns="http://www.w3.org/2000/svg">
<path d="M24.8411 7.48078C24.6178 7.17526 19.2963 0 12.4999 0C5.70343 0 0.381739 7.17526 0.158643 7.48048C-0.052881 7.77033 -0.052881 8.16344 0.158643 8.45329C0.381739 8.75881 5.70343 15.9341 12.4999 15.9341C19.2963 15.9341 24.6178 8.75876 24.8411 8.45353C25.0529 8.16374 25.0529 7.77033 24.8411 7.48078ZM12.4999 14.2857C7.49357 14.2857 3.15757 9.52336 1.87403 7.96647C3.15591 6.40822 7.48283 1.64834 12.4999 1.64834C17.5059 1.64834 21.8416 6.40988 23.1257 7.96759C21.8438 9.5258 17.5169 14.2857 12.4999 14.2857Z" fill="#F4F4F4"/>
<path d="M12.4999 3.02197C9.77322 3.02197 7.55481 5.24039 7.55481 7.96705C7.55481 10.6937 9.77322 12.9121 12.4999 12.9121C15.2265 12.9121 17.445 10.6937 17.445 7.96705C17.445 5.24039 15.2265 3.02197 12.4999 3.02197ZM12.4999 11.2637C10.682 11.2637 9.2032 9.78488 9.2032 7.96705C9.2032 6.14922 10.6821 4.67036 12.4999 4.67036C14.3177 4.67036 15.7966 6.14922 15.7966 7.96705C15.7966 9.78488 14.3178 11.2637 12.4999 11.2637Z" fill="#F4F4F4"/>
</svg>
